<svg width="41" height="41" viewBox="0 0 41 41" fill="none" xmlns="http://www.w3.org/2000/svg">
<g clip-path="url(#clip0)">
<path d="M37.525 4.2954C33.0314 -0.101369 25.8476 -0.100413 21.3551 4.29758L2.51327 23.1395C-0.893716 26.6268 -0.828605 32.2157 2.6587 35.6226C6.08863 38.9736 11.5665 38.9736 14.9964 35.6226L32.058 18.5611C34.276 16.343 34.276 12.7468 32.058 10.5288C29.84 8.31072 26.2437 8.31072 24.0257 10.5288L7.70589 26.8485C7.13667 27.4379 7.15301 28.3771 7.7424 28.9463C8.31736 29.5016 9.22882 29.5016 9.80378 28.9463L26.1235 12.6266C27.2057 11.5898 28.9235 11.6268 29.9601 12.709C30.9655 13.7585 30.9655 15.4137 29.9601 16.4632L12.8986 33.5247C10.5937 35.7969 6.88326 35.7703 4.61116 33.4654C2.36201 31.1838 2.36201 27.5189 4.61116 25.2373L23.453 6.39538C26.8092 3.03795 32.2516 3.037 35.609 6.39312C38.9665 9.74925 38.9674 15.1917 35.6113 18.5491L16.7694 37.3911C16.147 37.924 16.0745 38.8606 16.6075 39.483C17.1405 40.1053 18.077 40.1778 18.6994 39.6448C18.7575 39.5951 18.8115 39.541 18.8612 39.483L37.7032 20.641C42.1677 16.0781 42.088 8.75989 37.525 4.2954Z" fill="#F8173E"/>
</g>
<defs>
<clipPath id="clip0">
<rect width="41" height="41" fill="white"/>
</clipPath>
</defs>
</svg>
