<svg width="41" height="41" viewBox="0 0 41 41" fill="none" xmlns="http://www.w3.org/2000/svg">
<path d="M36.6071 8.78573H30.4294L29.2418 4.03707C29.0786 3.3856 28.4931 2.92864 27.8214 2.92864H13.1786C12.5069 2.92864 11.9215 3.3856 11.7582 4.03707L10.5706 8.78573H4.39285C1.96675 8.78573 0 10.7525 0 13.1786V33.6785C0 36.1046 1.96675 38.0714 4.39285 38.0714H36.6071C39.0333 38.0714 41 36.1046 41 33.6785V13.1786C41 10.7525 39.0333 8.78573 36.6071 8.78573ZM38.0714 33.6785C38.0714 34.4873 37.4158 35.1429 36.6071 35.1429H4.39285C3.58412 35.1429 2.92854 34.4873 2.92854 33.6785V13.1786C2.92854 12.3698 3.58412 11.7143 4.39285 11.7143H11.7142C12.3859 11.7143 12.9714 11.2573 13.1346 10.6058L14.3222 5.8571H26.6778L27.8654 10.6058C28.0286 11.2573 28.6141 11.7142 29.2858 11.7143H36.6071C37.4159 11.7143 38.0715 12.3698 38.0715 13.1786V33.6785H38.0714Z" fill="#F8173E"/>
<path d="M20.5 16.1071C16.4565 16.1071 13.1786 19.385 13.1786 23.4285C13.1786 27.472 16.4565 30.7499 20.5 30.7499C24.5434 30.7499 27.8214 27.472 27.8214 23.4285C27.8166 19.3871 24.5415 16.112 20.5 16.1071ZM20.5 27.8214C18.0739 27.8214 16.1071 25.8547 16.1071 23.4286C16.1071 21.0025 18.0739 19.0357 20.5 19.0357C22.9261 19.0357 24.8928 21.0025 24.8928 23.4286C24.8928 25.8547 22.9261 27.8214 20.5 27.8214Z" fill="#F8173E"/>
</svg>
