<svg width="41" height="41" viewBox="0 0 41 41" fill="none" xmlns="http://www.w3.org/2000/svg">
<g clip-path="url(#clip0)">
<path d="M36.6071 11.8572H4.39285C1.96675 11.8572 0 13.8239 0 16.25V36.75C0 39.1761 1.96675 41.1428 4.39285 41.1428H36.6071C39.0333 41.1428 41 39.1761 41 36.75V16.25C41 13.8239 39.0333 11.8572 36.6071 11.8572ZM38.0714 36.75C38.0714 37.5587 37.4158 38.2143 36.6071 38.2143H4.39285C3.58412 38.2143 2.92854 37.5587 2.92854 36.75V35.8919L8.78571 30.0347L13.6076 34.8567C14.1794 35.4284 15.1064 35.4284 15.6781 34.8567L27.8214 22.7134L38.0715 32.9634V36.75H38.0714ZM38.0714 28.8223L28.8567 19.6076C28.2849 19.036 27.358 19.036 26.7862 19.6076L14.6429 31.7509L9.82095 26.9289C9.24919 26.3573 8.32223 26.3573 7.75047 26.9289L2.92854 31.7509V16.25C2.92854 15.4413 3.58412 14.7857 4.39285 14.7857H36.6071C37.4159 14.7857 38.0715 15.4413 38.0715 16.25V28.8223H38.0714Z" fill="#F8173E"/>
<path d="M13.1786 11.7142C10.7525 11.7142 8.78571 13.681 8.78571 16.1071C8.78571 18.5332 10.7525 20.5 13.1786 20.5C15.6047 20.5 17.5714 18.5332 17.5714 16.1071C17.5714 13.681 15.6047 11.7142 13.1786 11.7142ZM13.1786 17.5714C12.3698 17.5714 11.7142 16.9158 11.7142 16.1071C11.7142 15.2984 12.3698 14.6428 13.1786 14.6428C13.9873 14.6428 14.6429 15.2984 14.6429 16.1071C14.6429 16.9158 13.9873 17.5714 13.1786 17.5714Z" fill="#F8173E"/>
</g>
<defs>
<clipPath id="clip0">
<rect width="41" height="41" fill="white"/>
</clipPath>
</defs>
</svg>
