<svg width="41" height="41" viewBox="0 0 41 41" fill="none" xmlns="http://www.w3.org/2000/svg">
<g clip-path="url(#clip0)">
<path d="M20.496 40.9999C17.8451 40.9999 15.6884 38.8433 15.6884 36.1923V36.1522C15.6884 35.5816 15.3423 35.077 14.8067 34.8666C13.3397 34.2907 11.9723 33.4944 10.742 32.4999C10.2888 32.1335 9.67529 32.0786 9.17907 32.3604C9.17747 32.3613 9.1713 32.3649 9.16969 32.3657C6.86101 33.6668 3.91932 32.8527 2.61253 30.5512C1.97889 29.4353 1.81872 28.14 2.16158 26.904C2.50516 25.6655 3.31204 24.6355 4.43365 24.0035L4.4536 23.9922C4.94061 23.7156 5.21689 23.1664 5.14125 22.6255C4.93733 21.1706 4.94173 19.6699 5.15479 18.2164C5.23524 17.6665 4.95391 17.1067 4.45472 16.8232L4.42852 16.8083C3.31204 16.1792 2.50516 15.1492 2.16158 13.9107C1.81872 12.6747 1.97889 11.3794 2.61253 10.2635C3.9194 7.96197 6.86109 7.1482 9.16969 8.44898L9.26609 8.5037C9.75871 8.7835 10.3715 8.7295 10.8275 8.36621C12.0341 7.40501 13.3708 6.63267 14.8008 6.07058C15.3399 5.85856 15.6883 5.35304 15.6883 4.78262C15.9526 -1.59586 25.0407 -1.5929 25.3035 4.78262V4.81483C25.3035 5.38213 25.6492 5.88661 26.1843 6.10014C27.5986 6.66448 28.9206 7.43489 30.1135 8.38992C30.5705 8.75578 31.1842 8.81131 31.6769 8.53151L31.8174 8.4517C34.131 7.1482 37.0725 7.96213 38.3794 10.2636C39.013 11.3794 39.1732 12.6747 38.8303 13.9107C38.4867 15.1492 37.6799 16.1792 36.5582 16.8112L36.4483 16.8736C35.9589 17.1515 35.6824 17.7006 35.7605 18.24C35.968 19.6718 35.9732 21.1498 35.7766 22.5832C35.7023 23.1251 35.9786 23.6742 36.4639 23.9499L36.5607 24.0048C37.681 24.637 38.487 25.6664 38.8303 26.9039C39.9815 30.9951 35.5144 34.4584 31.8222 32.3657L31.7664 32.3341C31.2686 32.0514 30.6517 32.1088 30.1942 32.4802C28.9786 33.4667 27.6276 34.2596 26.1787 34.8371C25.6471 35.0489 25.3036 35.5525 25.3036 36.12V36.1923C25.3036 38.8433 23.1469 40.9999 20.496 40.9999V40.9999ZM9.8575 28.9729C10.8865 28.9729 11.9095 29.3224 12.7569 30.0073C13.7324 30.7959 14.8161 31.4271 15.9781 31.8834C17.7492 32.5788 18.8935 34.2544 18.8935 36.1522V36.1923C18.9818 38.3188 22.011 38.3172 22.0985 36.1923V36.12C22.0985 34.2325 23.2343 32.5603 24.9921 31.8597C26.1399 31.4023 27.2106 30.7737 28.1745 29.9915C29.6642 28.7824 31.6951 28.6078 33.3486 29.5468L33.3997 29.5758C34.17 30.0097 35.1553 29.7385 35.5923 28.9686C35.8023 28.5988 35.8554 28.1699 35.7418 27.7608C35.6277 27.3493 35.3589 27.0066 34.9849 26.7959C34.9832 26.795 34.9817 26.7941 34.98 26.7932L34.8811 26.7369C33.2417 25.8059 32.3468 24.0048 32.6012 22.1483C32.7571 21.0111 32.7532 19.8351 32.5885 18.6991C32.323 16.8647 33.238 15.0111 34.8655 14.0868L34.9802 14.0217C35.359 13.8082 35.6278 13.4656 35.742 13.0541C35.8555 12.645 35.8023 12.216 35.5924 11.8463C35.1553 11.0765 34.1698 10.8054 33.3956 11.2415L33.2598 11.3186C31.619 12.2503 29.5981 12.0829 28.1106 10.8921C27.1647 10.1348 26.117 9.5242 24.9966 9.07709C23.2362 8.37462 22.0986 6.70165 22.0986 4.81499V4.7827C22.0105 2.65694 18.9814 2.65702 18.8935 4.7827C18.8935 6.67978 17.7473 8.35619 15.9736 9.05345C14.8408 9.49871 13.7815 10.111 12.8248 10.873C11.3391 12.0568 9.32113 12.2208 7.68375 11.2909L7.59208 11.2389C6.82222 10.8052 5.83691 11.0764 5.39974 11.8462C5.1898 12.216 5.13668 12.6449 5.25014 13.054C5.36432 13.4655 5.63315 13.8082 6.00718 14.0189L6.03819 14.0364C7.67686 14.9671 8.59663 16.8335 8.32628 18.6804C8.15729 19.8334 8.15377 21.0273 8.31562 22.1813C8.57572 24.0403 7.68126 25.8451 6.03674 26.7791L6.01206 26.793C5.63323 27.0065 5.3644 27.3492 5.25022 27.7607C5.13668 28.1698 5.1898 28.5987 5.39974 28.9684C5.83675 29.7381 6.82214 30.0095 7.59657 29.5733C8.30505 29.171 9.08292 28.9729 9.8575 28.9729V28.9729ZM20.496 28.9008C15.8569 28.9008 12.0827 25.1266 12.0827 20.4875C12.5449 9.32612 28.4489 9.32941 28.9093 20.4876C28.9093 25.1266 25.1351 28.9008 20.496 28.9008V28.9008ZM20.496 15.2793C17.6242 15.2793 15.2878 17.6157 15.2878 20.4875C15.5739 27.3969 25.4192 27.3949 25.7042 20.4875C25.7042 17.6156 23.3678 15.2793 20.496 15.2793V15.2793Z" fill="#F8173E"/>
</g>
<defs>
<clipPath id="clip0">
<rect width="41" height="41" fill="white"/>
</clipPath>
</defs>
</svg>
